# xmcd CD database file
#
# Track frame offsets:
#	150
#	70872
#	109378
#	152640
#	193477
#	245139
#
# Disc length: 3901 seconds
#
# Revision: 0
# Processed by: cddbd v1.5.1PL0 Copyright (c) Steve Scherf et al.
# Submitted via: CDex 1.51
#
DISCID=590f3b06
DTITLE=Dont Push The Clown - 03-06-28
DYEAR=2003
DGENRE=Jazz
TTITLE0=City Of Tiny Lights
TTITLE1=Blackbird
TTITLE2=Let Me Love You Baby
TTITLE3=Thank You
TTITLE4=Spring Water
TTITLE5=Dont Push The Clown
EXTD=YEAR: 2003
EXTT0=
EXTT1=
EXTT2=
EXTT3=
EXTT4=
EXTT5=
PLAYORDER=
